<mxfile host="app.diagrams.net" modified="2023-10-16T00:51:13.447Z" agent="Mozilla/5.0 (Windows NT 10.0; Win64; x64) AppleWebKit/537.36 (KHTML, like Gecko) Chrome/106.0.0.0 Safari/537.36 Edg/106.0.1370.47" etag="8zzQoB8UwS7oSocHUJ_R" version="22.0.4" type="github">
  <diagram id="C5RBs43oDa-KdzZeNtuy" name="Page-1">
    <mxGraphModel dx="833" dy="476" grid="1" gridSize="10" guides="1" tooltips="1" connect="1" arrows="1" fold="1" page="1" pageScale="1" pageWidth="827" pageHeight="1169" math="0" shadow="0">
      <root>
        <mxCell id="WIyWlLk6GJQsqaUBKTNV-0" />
        <mxCell id="WIyWlLk6GJQsqaUBKTNV-1" parent="WIyWlLk6GJQsqaUBKTNV-0" />
        <mxCell id="M62Do_2b2mh7UISyt2gW-14" value="" style="edgeStyle=orthogonalEdgeStyle;rounded=0;orthogonalLoop=1;jettySize=auto;html=1;" edge="1" parent="WIyWlLk6GJQsqaUBKTNV-1" source="M62Do_2b2mh7UISyt2gW-0" target="M62Do_2b2mh7UISyt2gW-2">
          <mxGeometry relative="1" as="geometry" />
        </mxCell>
        <mxCell id="M62Do_2b2mh7UISyt2gW-0" value="mulai" style="rounded=1;whiteSpace=wrap;html=1;" vertex="1" parent="WIyWlLk6GJQsqaUBKTNV-1">
          <mxGeometry x="290" y="300" width="160" height="60" as="geometry" />
        </mxCell>
        <mxCell id="M62Do_2b2mh7UISyt2gW-15" value="" style="edgeStyle=orthogonalEdgeStyle;rounded=0;orthogonalLoop=1;jettySize=auto;html=1;" edge="1" parent="WIyWlLk6GJQsqaUBKTNV-1" source="M62Do_2b2mh7UISyt2gW-2" target="M62Do_2b2mh7UISyt2gW-3">
          <mxGeometry relative="1" as="geometry" />
        </mxCell>
        <mxCell id="M62Do_2b2mh7UISyt2gW-2" value="masukan bilangan bulat" style="shape=parallelogram;perimeter=parallelogramPerimeter;whiteSpace=wrap;html=1;fixedSize=1;" vertex="1" parent="WIyWlLk6GJQsqaUBKTNV-1">
          <mxGeometry x="290" y="450" width="170" height="50" as="geometry" />
        </mxCell>
        <mxCell id="M62Do_2b2mh7UISyt2gW-16" value="" style="edgeStyle=orthogonalEdgeStyle;rounded=0;orthogonalLoop=1;jettySize=auto;html=1;" edge="1" parent="WIyWlLk6GJQsqaUBKTNV-1" source="M62Do_2b2mh7UISyt2gW-3" target="M62Do_2b2mh7UISyt2gW-4">
          <mxGeometry relative="1" as="geometry" />
        </mxCell>
        <mxCell id="M62Do_2b2mh7UISyt2gW-3" value="bilangan di bagi 2 dengan&amp;nbsp; operasi sisa bagi" style="rounded=0;whiteSpace=wrap;html=1;" vertex="1" parent="WIyWlLk6GJQsqaUBKTNV-1">
          <mxGeometry x="292.5" y="555" width="165" height="60" as="geometry" />
        </mxCell>
        <mxCell id="M62Do_2b2mh7UISyt2gW-17" value="TIDAK" style="edgeStyle=orthogonalEdgeStyle;rounded=0;orthogonalLoop=1;jettySize=auto;html=1;" edge="1" parent="WIyWlLk6GJQsqaUBKTNV-1" source="M62Do_2b2mh7UISyt2gW-4" target="M62Do_2b2mh7UISyt2gW-5">
          <mxGeometry relative="1" as="geometry" />
        </mxCell>
        <mxCell id="M62Do_2b2mh7UISyt2gW-19" value="YA" style="edgeStyle=orthogonalEdgeStyle;rounded=0;orthogonalLoop=1;jettySize=auto;html=1;" edge="1" parent="WIyWlLk6GJQsqaUBKTNV-1" source="M62Do_2b2mh7UISyt2gW-4">
          <mxGeometry relative="1" as="geometry">
            <mxPoint x="540" y="710" as="targetPoint" />
          </mxGeometry>
        </mxCell>
        <mxCell id="M62Do_2b2mh7UISyt2gW-4" value="?sisa bagi =0" style="rhombus;whiteSpace=wrap;html=1;" vertex="1" parent="WIyWlLk6GJQsqaUBKTNV-1">
          <mxGeometry x="315" y="650" width="120" height="120" as="geometry" />
        </mxCell>
        <mxCell id="M62Do_2b2mh7UISyt2gW-18" value="" style="edgeStyle=orthogonalEdgeStyle;rounded=0;orthogonalLoop=1;jettySize=auto;html=1;" edge="1" parent="WIyWlLk6GJQsqaUBKTNV-1" source="M62Do_2b2mh7UISyt2gW-5" target="M62Do_2b2mh7UISyt2gW-8">
          <mxGeometry relative="1" as="geometry" />
        </mxCell>
        <mxCell id="M62Do_2b2mh7UISyt2gW-5" value="GANJIL" style="shape=parallelogram;perimeter=parallelogramPerimeter;whiteSpace=wrap;html=1;fixedSize=1;" vertex="1" parent="WIyWlLk6GJQsqaUBKTNV-1">
          <mxGeometry x="280" y="810" width="190" height="50" as="geometry" />
        </mxCell>
        <mxCell id="M62Do_2b2mh7UISyt2gW-8" value="Selsai" style="rounded=1;whiteSpace=wrap;html=1;" vertex="1" parent="WIyWlLk6GJQsqaUBKTNV-1">
          <mxGeometry x="297.5" y="960" width="155" height="60" as="geometry" />
        </mxCell>
        <mxCell id="M62Do_2b2mh7UISyt2gW-20" style="edgeStyle=orthogonalEdgeStyle;rounded=0;orthogonalLoop=1;jettySize=auto;html=1;entryX=1;entryY=0.75;entryDx=0;entryDy=0;" edge="1" parent="WIyWlLk6GJQsqaUBKTNV-1" target="M62Do_2b2mh7UISyt2gW-8">
          <mxGeometry relative="1" as="geometry">
            <mxPoint x="669.5" y="992" as="targetPoint" />
            <mxPoint x="669.5" y="730" as="sourcePoint" />
            <Array as="points">
              <mxPoint x="670" y="1005" />
            </Array>
          </mxGeometry>
        </mxCell>
        <mxCell id="M62Do_2b2mh7UISyt2gW-10" value="GENAP" style="shape=parallelogram;perimeter=parallelogramPerimeter;whiteSpace=wrap;html=1;fixedSize=1;" vertex="1" parent="WIyWlLk6GJQsqaUBKTNV-1">
          <mxGeometry x="570" y="680" width="200" height="60" as="geometry" />
        </mxCell>
      </root>
    </mxGraphModel>
  </diagram>
</mxfile>
